[img]http://imageshack.us/a/img833/7439/thehangoverii.jpg[/img]

[b][size=200][color=black]PLOT[/color][/size][/b]

[code]Two years after the bachelor party in Las Vegas, Phil, Stu, Alan, and Doug jet to Thailand for Stu's wedding.
 Stu's plan for a subdued pre-wedding brunch, however, goes seriously awry. [/code]

[b][size=200][color=black]IMDB[/color][/size][/b]

[code]http://www.imdb.com/title/tt1411697/[/code]

[b][size=200][color=black]MOVIE INFO[/color][/size][/b]

[code]The Hangover Part II [2011] BrRip x264 AAC-V3nom

Format                           : MPEG-4
Format profile                   : Base Media / Version 2
Codec ID                         : mp42
File size                        : 360 MiB
Duration                         : 1h 41mn
Overall bit rate                 : 495 Kbps
Encoded date                     : UTC 2012-10-15 18:55:58
Tagged date                      : UTC 2012-10-15 19:14:36

Video
ID                               : 1
Format                           : AVC
Format/Info                      : Advanced Video Codec
Format profile                   : Main@L2.1
Format settings, CABAC           : Yes
Format settings, ReFrames        : 4 frames
Codec ID                         : avc1
Codec ID/Info                    : Advanced Video Coding
Duration                         : 1h 41mn
Bit rate mode                    : Variable
Bit rate                         : 380 Kbps
Width                            : 640 pixels
Height                           : 272 pixels
Display aspect ratio             : 2.35:1
Frame rate mode                  : Variable
Frame rate                       : 23.976 fps
Minimum frame rate               : 23.974 fps
Maximum frame rate               : 23.981 fps
Color space                      : YUV
Chroma subsampling               : 4:2:0
Bit depth                        : 8 bits
Scan type                        : Progressive
Bits/(Pixel*Frame)               : 0.091
Stream size                      : 275 MiB (76%)
Writing library                  : x264 core 120
Encoded date                     : UTC 2012-10-15 18:55:58
Tagged date                      : UTC 2012-10-15 19:14:31

Audio
ID                               : 2
Format                           : AAC
Format/Info                      : Advanced Audio Codec
Format profile                   : LC
Codec ID                         : 40
Duration                         : 1h 41mn
Bit rate mode                    : Variable
Bit rate                         : 112 Kbps
Maximum bit rate                 : 125 Kbps
Channel(s)                       : 2 channels
Channel positions                : Front: L R
Sampling rate                    : 48.0 KHz
Compression mode                 : Lossy
Stream size                      : 81.6 MiB (23%)
Encoded date                     : UTC 2012-10-15 18:55:58
Tagged date                      : UTC 2012-10-15 19:14:31[/code]

[b][size=200][color=black]SOURCE[/color][/size][/b]

[code]The Hangover Part II[2011]BRRip XviD-ExtraTorrentRG (Thanks)[/code]

[b][size=200][color=black]SCREENSHOTS[/color][/size][/b]

[img]http://imageshack.us/a/img836/1775/thehangoverpartii2011br.jpg[/img]

[img]http://kastatic.com/i2/users/133df62bbf28e62494bb17fe11078f1a.gif[/img][img]http://kastatic.com/i2/users/133df62bbf28e62494bb17fe11078f1a.gif[/img]

